HIERARCHY
ROOT Hips
{
	OFFSET 0.0000 0.0000 0.0000
	CHANNELS 6 Xposition Yposition Zposition Zrotation Xrotation Yrotation
	JOINT Ab
	{
		OFFSET -0.0000 8.1305 -0.0000
		CHANNELS 3 Zrotation Xrotation Yrotation
		JOINT Chest
		{
			OFFSET -0.0000 26.2902 -0.0000
			CHANNELS 3 Zrotation Xrotation Yrotation
			JOINT Neck
			{
				OFFSET -0.0000 26.2902 0.0000
				CHANNELS 3 Zrotation Xrotation Yrotation
				JOINT Head
				{
					OFFSET -0.0000 10.8167 0.0000
					CHANNELS 3 Zrotation Xrotation Yrotation
					End Site
					{
						OFFSET -0.0000 16.7167 0.0000
					}
				}
			}
			JOINT LeftCollar
			{
				OFFSET -0.0000 26.2902 0.0000
				CHANNELS 3 Zrotation Xrotation Yrotation
				JOINT LeftShoulder
				{
					OFFSET 19.6667 -0.0000 0.0000
					CHANNELS 3 Zrotation Xrotation Yrotation
					JOINT LeftElbow
					{
						OFFSET 27.2190 0.0000 0.0000
						CHANNELS 3 Zrotation Xrotation Yrotation
						JOINT LeftWrist
						{
							OFFSET 30.7431 0.0000 0.0000
							CHANNELS 3 Zrotation Xrotation Yrotation
							End Site
							{
								OFFSET 0.0000 -14.7500 0.0000
							}
						}
					}
				}
			}
			JOINT RightCollar
			{
				OFFSET -0.0000 26.2902 0.0000
				CHANNELS 3 Zrotation Xrotation Yrotation
				JOINT RightShoulder
				{
					OFFSET -19.6667 0.0000 0.0000
					CHANNELS 3 Zrotation Xrotation Yrotation
					JOINT RightElbow
					{
						OFFSET -27.2190 0.0000 0.0000
						CHANNELS 3 Zrotation Xrotation Yrotation
						JOINT RightWrist
						{
							OFFSET -30.7431 0.0000 0.0000
							CHANNELS 3 Zrotation Xrotation Yrotation
							End Site
							{
								OFFSET -0.0000 -14.7500 0.0000
							}
						}
					}
				}
			}
		}
	}
	JOINT LeftHip
	{
		OFFSET 11.8000 0.0000 0.0000
		CHANNELS 3 Zrotation Xrotation Yrotation
		JOINT LeftKnee
		{
			OFFSET -0.0000 -39.7832 0.0000
			CHANNELS 3 Zrotation Xrotation Yrotation
			JOINT LeftAnkle
			{
				OFFSET -0.0000 -41.7317 0.0000
				CHANNELS 3 Zrotation Xrotation Yrotation
				End Site
				{
					OFFSET -0.0000 -4.9167 16.7167
				}
			}
		}
	}
	JOINT RightHip
	{
		OFFSET -11.8000 0.0000 0.0000
		CHANNELS 3 Zrotation Xrotation Yrotation
		JOINT RightKnee
		{
			OFFSET -0.0000 -39.7832 0.0000
			CHANNELS 3 Zrotation Xrotation Yrotation
			JOINT RightAnkle
			{
				OFFSET -0.0000 -41.7317 0.0000
				CHANNELS 3 Zrotation Xrotation Yrotation
				End Site
				{
					OFFSET -0.0000 -4.9167 16.7167
				}
			}
		}
	}
}
MOTION
Frames: 21
Frame Time: 0.010000
-15.0706 96.6048 175.7427 358.7029 358.6651 177.4405 357.9365 348.7773 0.6880 2.4707 7.7984 0.7185 359.3965 354.9298 358.8626 355.9304 1.0844 358.9298 338.1417 357.5692 12.7579 318.8606 57.1209 340.9413 7.5988 357.8503 328.6347 83.8532 357.9683 344.5609 28.3418 355.9100 343.9021 43.8588 46.0426 3.9888 343.3387 355.3623 30.9086 272.0386 355.1617 12.4902 357.5914 4.2480 358.1775 357.3361 8.6023 359.5189 355.4975 349.0769 22.4171 359.0874 9.0889 8.7641 5.4346 3.6550 6.2659 351.5944 343.2673 320.5014 
-15.0944 96.5992 175.7534 358.7059 358.6178 177.4559 357.9282 348.7852 0.6819 2.4749 7.7754 0.7136 359.3879 354.9122 358.8721 355.9458 1.1545 358.9391 338.1470 357.5353 12.7465 318.7965 57.1410 340.9863 7.7357 357.8132 328.6124 83.7417 357.9857 344.5597 28.3356 355.8912 343.8984 43.8661 46.0686 3.9998 343.2496 355.3418 30.8774 272.0770 355.1271 12.4194 357.5781 4.1243 358.1959 357.3411 8.7333 359.4456 355.5582 349.0280 22.4474 359.0667 9.0301 8.7855 5.4563 3.6643 6.2554 351.6238 343.2339 320.4857 
-15.1260 96.5978 175.7461 358.7061 358.6026 177.4806 357.9194 348.7964 0.6780 2.4780 7.7807 0.7112 359.3939 354.9369 358.8712 355.9424 1.1714 358.9393 338.1493 357.5358 12.7457 318.7674 57.1604 340.9907 7.7319 357.8618 328.6284 83.7482 357.9648 344.5991 28.3379 355.9111 343.9005 43.8658 45.9763 3.9747 343.2591 355.3148 31.0617 271.7814 355.5704 11.7227 357.5556 4.0482 358.1502 357.3333 8.8503 359.4833 355.5896 348.9774 22.4263 359.0399 9.0227 8.7650 5.4670 3.6621 6.2191 351.6545 343.2138 320.5256 
-15.1555 96.5909 175.7518 358.7154 358.5519 177.5021 357.9305 348.7802 0.6699 2.4574 7.7867 0.7058 359.4626 354.9623 358.8841 355.8805 1.1875 358.9516 338.1749 357.5011 12.7696 318.8085 57.2414 340.8847 7.7742 357.7897 328.6741 83.8185 357.9669 344.6329 28.3275 355.8785 343.8957 43.8811 46.0186 3.9817 343.1857 355.3034 31.0296 271.8469 355.5251 11.6769 357.5518 3.9264 358.1497 357.3239 8.9781 359.3976 355.5900 348.9345 22.4899 359.0230 8.9711 8.7458 5.4889 3.6648 6.2117 351.5451 343.2711 320.5255 
-15.1880 96.5857 175.7597 358.7217 358.5113 177.5260 357.9334 348.8018 0.6668 2.4505 7.7591 0.7008 359.5012 354.9671 358.9042 355.8418 1.2333 358.9726 338.1700 357.4999 12.8051 318.8928 57.2990 340.7834 7.7508 357.8441 328.6918 83.8496 357.9503 344.7329 28.3190 355.9101 343.8976 43.9141 45.9753 3.9459 343.2436 355.3056 31.0486 271.8045 355.5285 11.7247 357.5417 3.8126 358.1274 357.3081 9.0998 359.4202 355.6430 348.9049 22.4753 359.0067 8.9203 8.6635 5.4984 3.6795 6.2317 351.6029 343.1992 320.5563 
-15.2294 96.5829 175.7567 358.7088 358.4853 177.5230 357.9371 348.8080 0.6689 2.4365 7.7717 0.7053 359.4375 355.0049 358.9111 355.9252 1.2171 358.9781 338.1581 357.5324 12.8419 318.9612 57.2904 340.6726 7.7228 357.8210 328.7698 83.0390 357.9266 344.2117 28.3242 355.9377 343.9065 43.8739 45.9481 3.9716 343.2257 355.3348 31.0551 271.8497 355.5129 11.7274 357.4989 3.7298 358.1066 357.3017 9.2078 359.3941 355.6881 348.8518 22.5260 358.9511 8.8910 8.6294 5.5210 3.6944 6.2790 351.6184 343.1944 320.5221 
-15.2721 96.5763 175.7572 358.7173 358.4535 177.5368 357.9598 348.8244 0.6764 2.4133 7.7697 0.7105 359.4330 355.0045 358.9030 355.9424 1.2623 358.9739 338.1688 357.5061 12.8439 318.9288 57.3425 340.6577 7.8631 357.7877 328.7734 83.0333 357.9281 344.3342 28.3293 355.9156 343.9078 43.8595 45.9501 3.9701 343.2358 355.3082 31.0530 271.6684 355.4735 11.6622 357.4782 3.6446 358.0510 357.2909 9.3035 359.4310 355.8087 348.8468 22.5251 358.9263 8.8545 8.5861 5.5376 3.7044 6.2572 351.7868 343.1075 320.5531 
-15.3192 96.5696 175.7608 358.7150 358.4169 177.5396 357.9897 348.8288 0.6791 2.3711 7.7948 0.7116 359.4359 354.9968 358.9162 355.9501 1.2879 358.9879 338.1763 357.5365 12.8691 318.9653 57.3138 340.5759 7.7862 357.8112 328.6924 83.7499 358.0207 344.7688 28.3444 355.9113 343.9059 43.8154 45.9842 3.9822 343.2607 355.2905 31.0561 271.6591 355.4525 11.7415 357.4466 3.5396 358.0391 357.2834 9.4301 359.3727 355.8552 348.8159 22.5958 358.8784 8.8019 8.5810 5.5684 3.7314 6.2305 351.6872 343.1419 320.6091 
-15.3654 96.5643 175.7553 358.7193 358.3921 177.5275 357.9908 348.8156 0.6977 2.3708 7.8589 0.7348 359.5135 355.0071 358.9384 355.8573 1.2969 359.0057 338.1760 357.5078 12.8578 318.9270 57.3071 340.5853 7.8869 357.7732 328.6782 83.6781 358.0070 344.7671 28.3393 355.9419 343.9240 43.7790 45.9120 4.0092 343.3007 355.3472 31.0863 271.7097 355.4382 11.7083 357.4205 3.4748 358.0046 357.2721 9.5120 359.3705 355.9473 348.7800 22.6284 358.8490 8.7596 8.5082 5.5711 3.7681 6.2767 351.6933 343.1197 320.6342 
-15.4158 96.5595 175.7481 358.7107 358.3761 177.5085 357.9942 348.8278 0.7142 2.3613 7.8890 0.7452 359.5400 355.0695 358.9591 355.8307 1.2595 359.0281 338.1760 357.4791 12.8939 318.9819 57.3856 340.4971 7.9415 357.7863 328.6843 83.5836 357.9769 344.8016 28.3352 355.9225 343.9556 43.7877 45.9126 3.9739 343.2451 355.3137 31.0914 271.6937 355.4744 11.6336 357.3749 3.4015 357.9838 357.2636 9.6289 359.3891 355.9744 348.7090 22.6457 358.7933 8.7331 8.4821 5.5960 3.7896 6.2977 351.7666 343.0628 320.6389 
-15.4692 96.5556 175.7457 358.7034 358.3365 177.5134 357.9847 348.8264 0.7225 2.3645 7.9048 0.7549 359.5557 355.1546 358.9724 355.8296 1.1996 359.0351 338.1488 357.5080 12.9088 319.0670 57.4100 340.4058 7.8712 357.7828 328.6599 83.6005 358.0160 344.8008 28.3190 355.9562 343.9888 43.8657 45.8470 3.8830 343.2685 355.2951 31.1247 271.7248 355.5149 11.6316 357.3313 3.2854 357.9553 357.2561 9.7755 359.3634 356.0355 348.6729 22.6851 358.7514 8.6371 8.1569 5.5925 3.9268 6.5102 351.8002 342.9999 320.7072 
-15.5210 96.5509 175.7388 358.7003 358.2966 177.4968 357.9953 348.8326 0.7317 2.3451 7.9043 0.7674 359.5472 355.1875 358.9787 355.8392 1.2601 359.0437 338.1543 357.4890 12.9283 319.0492 57.4611 340.3989 8.0060 357.7470 328.6242 83.4538 357.9884 344.9545 28.3124 355.9225 343.9925 43.8675 45.9402 3.8859 343.1881 355.2795 31.0117 271.7983 355.4068 11.7371 357.3007 3.1968 357.9493 357.2328 9.8797 359.3257 356.1042 348.6064 22.7359 358.7102 8.5723 8.1225 5.5984 3.9855 6.5555 351.8275 342.9531 320.7110 
-15.5760 96.5444 175.7292 358.7066 358.2663 177.4872 357.9891 348.8347 0.7515 2.3565 7.9286 0.7836 359.6281 355.2008 358.9990 355.7358 1.3491 359.0669 338.1327 357.5127 12.9105 318.9971 57.3921 340.4747 7.9293 357.7706 328.5611 83.5534 357.9920 344.9505 28.3221 355.9403 344.0240 43.8476 45.9284 3.8318 343.2447 355.2809 31.0960 271.6994 355.5235 11.5617 357.2710 3.0980 357.9510 357.2206 10.0253 359.3120 356.1020 348.5223 22.7427 358.6711 8.5229 8.0825 5.6204 4.0237 6.5658 351.9699 342.8659 320.7324 
-15.6366 96.5367 175.7204 358.7205 358.2513 177.4764 357.9758 348.8481 0.7801 2.4052 7.9880 0.8107 359.6263 355.1911 358.9965 355.7023 1.4107 359.0688 338.1324 357.4923 12.9122 318.9782 57.4560 340.4100 8.0437 357.7007 328.5702 83.5779 357.9754 345.0663 28.3150 355.9629 344.0194 43.7751 45.8244 3.8893 343.2963 355.3349 31.0527 271.7728 355.3840 11.8499 357.2524 3.0380 357.9469 357.1953 10.1193 359.3059 356.3736 348.5533 22.7693 358.6410 8.4759 8.0060 5.6279 4.0991 6.6177 351.9207 342.8408 320.7474 
-15.7011 96.5305 175.7020 358.7337 358.2425 177.4789 358.0021 348.8647 0.7931 2.3795 8.0162 0.8198 359.6323 355.3102 358.9876 355.7238 1.3947 359.0559 338.1542 357.5176 12.8573 318.8300 57.4370 340.5591 8.0539 357.7273 328.4980 83.5988 357.9620 345.1265 28.3244 355.9311 344.0161 43.7640 45.8743 3.8776 343.2085 355.3149 31.0821 271.7252 355.5023 11.5550 357.2296 3.0013 357.9186 357.1697 10.1921 359.3125 356.2243 348.4500 22.7835 358.6021 8.4502 7.9294 5.6456 4.1592 6.6854 351.9509 342.7908 320.7585 
-15.7650 96.5201 175.6877 358.7652 358.2181 177.4984 358.0258 348.8878 0.8055 2.3870 8.0169 0.8295 359.6461 355.4468 359.0153 355.7626 1.3545 359.0831 338.1429 357.4864 12.8474 318.8338 57.4726 340.5508 8.1069 357.7180 328.5042 83.5303 357.9436 345.1540 28.2809 355.9079 343.9814 43.8139 45.9641 3.8707 343.1575 355.2843 31.0114 271.7543 355.4840 11.5453 357.2261 2.9324 357.9196 357.1578 10.3004 359.2155 356.4072 348.4252 22.8497 358.5917 8.4053 7.9143 5.6623 4.2191 6.6706 351.9630 342.7518 320.7473 
-15.8381 96.5106 175.6850 358.7737 358.1795 177.5106 358.0410 348.9027 0.8077 2.3911 8.0456 0.8281 359.6666 355.4156 359.0250 355.6943 1.4919 359.0962 338.1283 357.5236 12.8688 318.8839 57.4502 340.4581 8.0102 357.7445 328.4862 83.5489 357.9616 345.1667 28.2704 355.9400 343.9907 43.8375 45.8931 3.8560 343.1737 355.3456 31.0022 271.7699 355.4618 11.5673 357.1984 2.8461 357.8860 357.1274 10.3864 359.2304 356.5194 348.4102 22.8537 358.5431 8.3126 7.8463 5.6971 4.3355 6.7442 351.9734 342.6825 320.7089 
-15.9093 96.5019 175.6703 358.8039 358.1548 177.5264 358.0687 348.9019 0.8146 2.3888 8.1065 0.8305 359.7860 355.3911 359.0445 355.5415 1.6141 359.1174 338.1349 357.4900 12.8715 318.8694 57.4633 340.4308 8.1114 357.7226 328.4621 83.5642 357.9197 345.2355 28.2819 355.9573 343.9882 43.7530 45.8786 3.9223 343.2225 355.3348 30.9112 271.8402 355.3060 11.9249 357.1939 2.8113 357.8546 357.1130 10.4139 359.1868 356.5662 348.4002 22.8823 358.5383 8.2386 7.7530 5.6913 4.4571 6.7488 352.0199 342.6027 320.7664 
-15.9923 96.4923 175.6509 358.8249 358.1308 177.5472 358.1230 348.9207 0.8180 2.3418 8.1094 0.8309 359.8401 355.5094 359.0563 355.4840 1.6533 359.1284 338.1540 357.4943 12.9422 319.0256 57.6044 340.2062 8.0650 357.7108 328.5184 83.6309 357.9024 345.2900 28.2927 355.9251 343.9882 43.7292 45.9372 3.9179 343.2736 355.3138 30.9573 271.3144 355.3795 11.5748 357.1561 2.7451 357.9002 357.1221 10.5099 359.0922 356.6810 348.3714 22.9222 358.4946 8.1768 7.7030 5.7284 4.5603 6.8122 352.0250 342.5284 320.7155 
-16.0796 96.4849 175.6474 358.8158 358.0834 177.5519 358.1250 348.9321 0.8338 2.3336 8.1242 0.8493 359.8306 355.6002 359.0817 355.5384 1.6732 359.1542 338.1439 357.4920 12.9434 319.0031 57.6131 340.2287 8.1001 357.7222 328.4874 83.5204 357.8394 345.2869 28.3087 355.9709 343.9963 43.6677 45.9420 3.9229 343.3155 355.3714 30.9653 271.2891 355.3156 11.6115 357.0812 2.6558 357.8718 357.1315 10.6051 359.0914 356.7712 348.3352 22.9196 358.4183 8.0405 7.6204 5.7697 4.7421 6.9246 352.0179 342.4460 320.6516 
-16.1652 96.4779 175.6288 358.8159 358.0411 177.5603 358.1087 348.9252 0.8481 2.3461 8.1589 0.8609 359.8693 355.6552 359.0898 355.5333 1.7665 359.1628 338.1550 357.4659 12.9817 319.0545 57.7164 340.1317 8.1658 357.7147 328.4779 83.5955 357.8515 345.3881 28.2791 355.9437 344.0094 43.7208 45.8772 3.8948 343.2532 355.3341 30.9763 271.2914 355.3509 11.5827 357.0282 2.5922 357.8528 357.1257 10.6638 359.0493 356.7733 348.2853 22.9732 358.3639 7.9753 7.4435 5.7631 4.8275 7.0593 352.0827 342.3872 320.6860 
